<svg width="194" height="870" viewBox="0 0 194 870" xmlns="http://www.w3.org/2000/svg"><path fill-rule="evenodd" clip-rule="evenodd" fill="#0d0d0d" d="M194 0H0v870h194V122.049c-.65 8.634-2.327 16.805-5.032 24.514-3.56 10.146-8.277 18.245-14.151 24.297l-32.04-18.957c7.654-12.46 11.481-25.187 11.481-38.181 0-15.13-4.984-27.679-14.952-37.647-9.79-9.79-23.674-14.685-41.652-14.685-16.376 0-29.993 5.251-40.85 15.753C46.3 87.645 41.05 101.262 41.05 117.994c0 14.952 4.54 28.48 13.617 40.584l-32.04 16.287c-6.408-5.696-11.659-14.151-15.753-25.365C2.958 138.464 1 126.627 1 113.989 1 84.975 9.811 61.39 27.433 43.234 45.411 25.078 68.818 16 97.654 16c28.124 0 51.264 8.544 69.42 25.632 16.225 15.27 25.2 36.085 26.926 62.443V0zm-2.896 303.49v46.191L80.299 283.465H4.204v-42.72H80.3l110.805-65.682v48.861l-70.755 40.05 70.755 39.516zm-.534 70.3H4.738c-1.068 11.036-1.602 28.925-1.602 53.667 0 21.182 4.895 38.27 14.685 51.264 9.968 13.172 24.297 19.758 42.987 19.758 10.858 0 19.936-2.492 27.234-7.476 7.298-4.806 12.46-11.214 15.486-19.224h.534c9.434 14.24 23.318 21.36 41.652 21.36 14.418 0 25.721-5.34 33.909-16.02 8.366-10.502 12.549-26.077 12.549-46.725 0-16.91-.534-35.778-1.602-56.604zM79.765 416.51v16.554c0 15.13-5.607 22.695-16.82 22.695-13.173 0-19.759-8.277-19.759-24.831 0-5.696.534-10.502 1.602-14.418h34.977zm71.289 0c.712 5.696 1.068 10.146 1.068 13.35 0 5.874-1.513 10.769-4.539 14.685-3.026 3.916-7.12 5.874-12.282 5.874-12.104 0-18.156-6.586-18.156-19.758V416.51h33.909zM4.204 652.055V538.58h186.9v110.805h-40.05v-68.086h-32.841v60.076h-40.05v-60.076H44.254v70.756H4.204zm0 82.822H69.62v15.753L4.204 796.02v51.798l73.692-54.468c10.324 21.004 28.302 31.506 53.934 31.506 39.872 0 59.808-23.051 59.808-69.153 0-7.654-.089-17.622-.267-29.904a2337.478 2337.478 0 0 1-.267-33.642H4.204v42.72zm147.117 16.287c.178 1.424.267 2.225.267 2.403 0 17.266-6.764 25.899-20.292 25.899-14.418 0-21.627-9.701-21.627-29.103v-15.486h41.385v9.612c.178 3.026.267 5.251.267 6.675z"/></svg>