<svg width="210" height="1354" viewBox="0 0 210 1354" xmlns="http://www.w3.org/2000/svg"><path fill-rule="evenodd" clip-rule="evenodd" fill="#0d0d0d" d="M210 0H0v1354h210V934.51c-.537 10.025-2.361 19.471-5.472 28.338-3.76 10.716-8.742 19.27-14.946 25.662l-33.84-20.022c8.084-13.16 12.126-26.602 12.126-40.326 0-15.98-5.264-29.234-15.792-39.762-10.34-10.34-25.004-15.51-43.992-15.51-17.296 0-31.678 5.546-43.146 16.638C53.846 900.62 48.3 915.002 48.3 932.674c0 15.792 4.794 30.08 14.382 42.864l-33.84 17.202c-6.768-6.016-12.314-14.946-16.638-26.79C8.068 954.294 6 941.792 6 928.444c0-30.644 9.306-55.554 27.918-74.73 18.988-19.176 43.71-28.764 74.166-28.764 29.704 0 54.144 9.024 73.32 27.072 17.711 16.669 27.243 39.592 28.596 68.769V479.014c-.537 10.025-2.361 19.471-5.472 28.338-3.76 10.716-8.742 19.27-14.946 25.662l-33.84-20.022c8.084-13.16 12.126-26.602 12.126-40.326 0-15.98-5.264-29.234-15.792-39.762-10.34-10.34-25.004-15.51-43.992-15.51-17.296 0-31.678 5.546-43.146 16.638C53.846 445.124 48.3 459.506 48.3 477.178c0 15.792 4.794 30.08 14.382 42.864l-33.84 17.202c-6.768-6.016-12.314-14.946-16.638-26.79C8.068 498.798 6 486.296 6 472.948c0-30.644 9.306-55.554 27.918-74.73 18.988-19.176 43.71-28.764 74.166-28.764 29.704 0 54.144 9.024 73.32 27.072 17.711 16.668 27.243 39.592 28.596 68.769V0zm-45.516 9.595v59.22H9.384v45.12h155.1v59.22h42.3V9.595h-42.3zM9.384 160.72v45.402l41.454 16.356v78.114L9.384 316.947v48.222l197.4-82.062v-40.326l-197.4-82.062zm139.59 100.956l-55.836 21.996v-44.274l55.836 22.278zm15.51 284.106v59.22H9.384v45.12h155.1v59.22h42.3v-163.56h-42.3zm-155.1 239.59v-45.12h197.4v45.12H9.384zm0 258.489v-45.403l197.4 82.063v40.32l-197.4 82.07v-48.23l41.454-16.35v-78.12l-41.454-16.35zm83.754 77.55l55.836-22-55.836-22.28v44.28zM9.384 1228.18v125.49h42.3v-80.37h155.1v-45.12H9.384z"/></svg>