<svg width="193" height="1535" viewBox="0 0 193 1535" xmlns="http://www.w3.org/2000/svg"><path fill-rule="evenodd" clip-rule="evenodd" fill="#0d0d0d" d="M193 0H0v1535h193V298.793c-1.697 24.995-10.405 45.669-26.125 62.024-17.622 18.69-41.029 28.035-70.22 28.035-28.125 0-51.265-9.434-69.42-28.302C9.077 341.86 0 318.186 0 289.528c0-29.014 8.811-52.866 26.433-71.556 17.622-18.512 41.03-27.768 70.221-27.768 27.59 0 50.552 9.167 68.886 27.501 16.562 16.562 25.715 37.469 27.46 62.722V0zM3.204 112.805v42.72h186.9v-42.72h-71.556V44.72h71.556V2H3.204v42.72h75.294v68.085H3.204zm53.133 138.542c11.036-10.502 24.475-15.753 40.317-15.753 16.732 0 30.349 5.073 40.851 15.219 10.502 10.146 15.753 23.051 15.753 38.715 0 15.13-5.251 27.946-15.753 38.448-10.324 10.324-23.941 15.486-40.85 15.486-16.377 0-29.994-4.717-40.852-14.151-10.502-9.434-15.753-22.695-15.753-39.783 0-15.13 5.43-27.857 16.287-38.181zM3.204 466.34v-42.72h186.9v42.987l-78.765 57.672 78.765 54.468v40.317H3.204v-42.72h119.082l-72.89-52.065v-6.141l72.089-51.798H3.205zm0 200.813v113.475h40.05v-70.755h33.91v60.075h40.049v-60.075h32.841v68.085h40.05V667.153H3.204zm0 272.392V820.73h186.9v42.72H43.254v76.095H3.204zm0 2.65v42.987l39.25 15.488v73.96l-39.25 15.48v45.66l186.9-77.7v-38.18l-186.9-77.695zm132.165 95.585l-52.866 20.83v-41.92l52.866 21.09zM3.204 1322.57v-34.18l112.14-88.64H3.204v-40.05h186.9v34.17L77.43 1282.52h112.674v40.05H3.204zm0 48.07v4.53c0 10.86-.089 20.56-.267 29.11-.178 8.54-.267 16.28-.267 23.23 0 34.17 8.99 60.52 26.967 79.03 18.156 18.69 41.03 28.03 68.62 28.03 26.877 0 49.038-8.72 66.482-26.16 17.444-17.45 26.166-43.7 26.166-78.77 0-1.24-.089-3.11-.267-5.6 0-2.5-.089-6.06-.267-10.68v-12.29c-.178-9.79-.267-18.69-.267-26.7v-3.73H3.204zm146.85 42.72c.534 3.56.801 8.81.801 15.75 0 18.33-4.628 32.93-13.884 43.79-9.256 10.85-22.161 16.28-38.715 16.28-17.444 0-31.06-5.34-40.85-16.02-9.79-10.68-14.686-25.45-14.686-44.32 0-5.34.178-10.5.534-15.48h106.8z"/></svg>