<svg width="201" height="1776" viewBox="0 0 201 1776" xmlns="http://www.w3.org/2000/svg"><path fill-rule="evenodd" clip-rule="evenodd" fill="#0d0d0d" d="M201 0H0v1776h201V0zM54.648 85.969c7.832 0 16.109-9.167 24.83-27.501 2.315-5.34 4.45-10.057 6.409-14.151 2.136-3.916 4.984-8.366 8.544-13.35 3.738-4.806 7.565-8.811 11.481-12.015 3.916-3.026 8.811-5.696 14.685-8.01 5.874-2.136 12.193-3.115 18.957-2.937 14.952 0 27.679 5.518 38.181 16.554 10.502 11.036 15.753 25.632 15.753 43.788 0 23.852-6.853 42.186-20.559 55.002l-32.04-22.962c4.806-5.162 8.099-9.701 9.879-13.617 1.78-3.738 2.67-8.633 2.67-14.685 0-5.874-1.246-10.502-3.738-13.884-2.492-3.204-5.874-4.806-10.146-4.806-4.806 0-9.078 1.869-12.816 5.607-3.738 3.916-6.853 8.722-9.345 14.418-2.314 5.874-5.251 12.193-8.811 18.957-3.56 6.764-7.387 12.994-11.481 18.69-3.916 5.874-9.523 10.68-16.821 14.418-7.12 3.916-15.486 5.874-25.098 5.874-16.02 0-29.192-6.141-39.516-18.423C5.342 101.01.18 85.791.18 67.279c0-13.528 2.759-26.344 8.277-38.448C13.975 16.549 21.45 8.272 30.885 4l29.103 24.297c-6.23 4.806-11.125 10.858-14.685 18.156-3.382 7.298-5.073 14.596-5.073 21.894 0 5.518 1.246 9.79 3.738 12.816 2.67 3.204 6.23 4.806 10.68 4.806zm95.586 114.714v-56.07h40.05v154.86h-40.05v-56.07H3.384v-42.72h146.85zM3.384 368.789h65.415v15.753l-65.415 45.39v94.745l39.249 15.486v73.959l-39.25 15.486v45.657l186.901-77.697v-38.181L3.418 481.704l73.658-54.442c10.324 21.004 28.302 31.506 53.934 31.506 39.872 0 59.808-23.051 59.808-69.153 0-7.654-.089-17.622-.267-29.904a2337.478 2337.478 0 0 1-.267-33.642H3.384v42.72zM150.5 385.076c.178 1.424.267 2.225.267 2.403 0 17.266-6.764 25.899-20.292 25.899-14.418 0-21.627-9.701-21.627-29.103v-15.486h41.385v9.612c.178 3.026.267 5.251.267 6.675zM82.683 598.102l52.866-20.826-52.866-21.093v41.919zm67.551 65.388v56.07H3.384v42.72h146.85v56.07h40.05V663.49h-40.05zM3.384 958.421V844.946h186.9v110.805h-40.05v-68.085h-32.841v60.075h-40.05v-60.075h-33.91v70.755H3.384zm66.483 116.999v39.78H49.575c-2.314-2.49-4.45-6.67-6.408-12.55-1.958-6.23-2.937-11.83-2.937-16.82 0-16.73 5.073-30.17 15.219-40.32 10.324-9.96 24.119-14.95 41.385-14.95 18.156 0 32.129 4.9 41.919 14.69 9.79 9.97 14.685 23.23 14.685 39.78 0 7.3-1.335 14.51-4.005 21.63-2.67 7.3-5.963 12.81-9.879 16.55l34.443 17.89c12.994-16.2 19.491-36.58 19.491-61.14 0-28.48-9.256-51.44-27.768-68.89-18.334-17.264-41.296-25.897-68.886-25.897-29.548 0-53.044 8.811-70.488 26.437C8.902 1029.41.18 1053.97.18 1085.3c0 12.28 2.403 24.92 7.209 37.91 4.806 13.35 11.214 24.03 19.224 32.04h83.304v-79.83h-40.05zM3.384 1237.91v-42.73h186.9v42.73H3.384zm18.423 196.33l32.04-16.28c-9.078-12.11-13.617-25.64-13.617-40.59 0-16.73 5.25-30.35 15.753-40.85 10.858-10.5 24.475-15.75 40.85-15.75 17.979 0 31.863 4.89 41.653 14.68 9.968 9.97 14.952 22.52 14.952 37.65 0 12.99-3.827 25.72-11.481 38.18l32.04 18.96c5.874-6.05 10.591-14.15 14.151-24.3 3.56-10.14 5.34-21.09 5.34-32.84 0-30.97-9.078-55-27.234-72.09-18.156-17.09-41.296-25.63-69.42-25.63-28.836 0-52.243 9.08-70.221 27.23C8.99 1320.77.18 1344.35.18 1373.37c0 12.64 1.958 24.47 5.874 35.51 4.094 11.21 9.345 19.67 15.753 25.36zm-18.423 48.4v-42.98l186.9 77.69v38.18l-186.9 77.7v-45.66l39.249-15.48v-73.96l-39.25-15.49zm79.299 73.43l52.866-20.83-52.866-21.09v41.92zm-79.3 101.09v118.81h40.05v-76.09h146.851v-42.72H3.384z"/></svg>