<svg width="33" height="27" viewBox="0 0 33 27" fill="none" xmlns="http://www.w3.org/2000/svg">
<path fill-rule="evenodd" clip-rule="evenodd" d="M1.71661e-05 8.5C1.71661e-05 3.80558 3.8056 0 8.50002 0H13.5C16.5419 0 19.2105 1.59785 20.7125 4H17.5C12.8056 4 9.00002 7.80558 9.00002 12.5C9.00002 12.8758 9.0244 13.2458 9.07167 13.6087V17H8.50002C3.8056 17 1.71661e-05 13.1944 1.71661e-05 8.5Z" fill="#1E917C"/>
<path fill-rule="evenodd" clip-rule="evenodd" d="M24.5001 6C29.1945 6 33.0001 9.80558 33.0001 14.5C33.0001 19.1944 29.1945 23 24.5001 23H21.5261C21.4176 23.0051 21.3065 23.0077 21.1927 23.0077C15.8011 23.0077 11.0717 27 11.0717 27V15.6087C11.0244 15.2458 11.0001 14.8758 11.0001 14.5C11.0001 9.80558 14.8056 6 19.5001 6H24.5001Z" fill="#D8D8D8"/>
<path d="M17.5001 16C18.3285 16 19.0001 15.3284 19.0001 14.5C19.0001 13.6716 18.3285 13 17.5001 13C16.6716 13 16.0001 13.6716 16.0001 14.5C16.0001 15.3284 16.6716 16 17.5001 16Z" fill="#1E917C"/>
<path d="M22.5001 16C23.3285 16 24.0001 15.3284 24.0001 14.5C24.0001 13.6716 23.3285 13 22.5001 13C21.6716 13 21.0001 13.6716 21.0001 14.5C21.0001 15.3284 21.6716 16 22.5001 16Z" fill="#1E917C"/>
<path d="M27.5001 16C28.3285 16 29.0001 15.3284 29.0001 14.5C29.0001 13.6716 28.3285 13 27.5001 13C26.6716 13 26.0001 13.6716 26.0001 14.5C26.0001 15.3284 26.6716 16 27.5001 16Z" fill="#1E917C"/>
</svg>
