<svg width="138" height="30" viewBox="0 0 138 30" fill="none" xmlns="http://www.w3.org/2000/svg"><path fill-rule="evenodd" clip-rule="evenodd" d="M41.031 10.961h2.916c.332 0 .616.113.847.335.23.223.349.498.349.845a1.1 1.1 0 0 1-.35.818c-.23.223-.515.336-.846.336H41.03V10.96zm5.58 2.936c.165-.234.297-.493.396-.77a2.96 2.96 0 0 0 .167-1.014c0-.422-.085-.829-.254-1.209a3.19 3.19 0 0 0-1.716-1.66A3.291 3.291 0 0 0 43.947 9H39v10.55h2.031v-4.296h3.667c.33 0 .616.113.847.335.23.224.348.5.348.848 0 .319-.117.593-.347.815a1.18 1.18 0 0 1-.848.338h-2.382l-.813 1.96h3.195c.439 0 .86-.083 1.253-.246a3.416 3.416 0 0 0 1.026-.662c.293-.278.527-.612.696-.992a3.02 3.02 0 0 0 .253-1.244 2.93 2.93 0 0 0-.38-1.464 3.248 3.248 0 0 0-.934-1.045zm4.561 5.653h7.303v-1.96h-5.302v-2.336h4.423l-.502-1.96h-3.921v-2.333h5.302V9h-7.303v10.55zM62.755 9H60.91v10.55h5.68v-1.963h-3.835V9zm12.761 10.55h1.623V9h-1.623v10.55zm11.007-3.702L82.47 9h-2.086v10.55h1.977V12.7l4.05 6.848H88.5V9h-1.977v6.848zm15.984-1.645a5.691 5.691 0 0 0-.641-.378 11.946 11.946 0 0 0-.593-.271 4.555 4.555 0 0 0-.48-.177 2.54 2.54 0 0 1-.285-.093l-.706-.192a3.074 3.074 0 0 1-.552-.22 1.681 1.681 0 0 1-.487-.372.838.838 0 0 1-.229-.591c0-.389.192-.695.57-.93.142-.075.3-.135.48-.182.638-.152 1.215-.053 1.755.208.228.112.46.281.69.5l.132.127 1.33-1.35-.15-.132a3.811 3.811 0 0 0-.558-.415 6.5 6.5 0 0 0-1.12-.49C101.19 9.084 100.604 9 99.918 9c-.372 0-.76.053-1.148.158a3.08 3.08 0 0 0-1.07.536c-.32.247-.585.573-.783.97-.2.396-.302.885-.302 1.457 0 .874.445 1.618 1.328 2.213a5.66 5.66 0 0 0 1.13.591c.365.142.656.244.842.296a.49.49 0 0 0 .099.035.26.26 0 0 0 .112.036.78.78 0 0 1 .127.037c.146.047.316.099.507.156.184.057.354.13.535.23.188.084.352.201.473.344a.834.834 0 0 1 .233.583c0 .361-.146.645-.44.864-.144.099-.317.18-.514.239-.192.06-.41.09-.644.09a3.99 3.99 0 0 1-.498-.042 2.713 2.713 0 0 1-.646-.178 3.406 3.406 0 0 1-.956-.58l-.13-.114-1.307 1.312.168.13a6.3 6.3 0 0 0 1.45.804c.619.253 1.336.382 2.131.382.5 0 .96-.073 1.361-.216a2.943 2.943 0 0 0 1.042-.624c.288-.269.512-.6.666-.987.155-.38.234-.817.234-1.296 0-.853-.475-1.603-1.411-2.223zm13.32.07a3.345 3.345 0 0 1-.983 2.404c-.33.327-.702.575-1.108.735a3.477 3.477 0 0 1-2.59 0 3.283 3.283 0 0 1-1.095-.735 3.373 3.373 0 0 1-.743-3.696c.171-.407.42-.776.744-1.097.316-.32.682-.57 1.094-.744a3.413 3.413 0 0 1 2.591 0c.412.171.784.422 1.106.745.319.319.567.688.734 1.098a3.4 3.4 0 0 1 .25 1.29zm.343-3.732a5.318 5.318 0 0 0-1.679-1.13 5.336 5.336 0 0 0-4.103 0 5.306 5.306 0 0 0-1.679 1.13 5.317 5.317 0 0 0-1.131 1.68 5.167 5.167 0 0 0-.414 2.052c0 .722.139 1.412.414 2.052a5.356 5.356 0 0 0 1.131 1.684c.48.479 1.048.857 1.678 1.128a5.18 5.18 0 0 0 2.053.412 5.18 5.18 0 0 0 2.051-.412 5.334 5.334 0 0 0 1.679-1.128 5.328 5.328 0 0 0 1.129-1.684 5.147 5.147 0 0 0 .414-2.052c0-.72-.137-1.41-.414-2.051a5.272 5.272 0 0 0-1.129-1.68zm3.978 9.009h1.999v-4.296h4.425l-.497-1.96h-3.928v-2.333h5.304V9h-7.303v10.55zM129.885 9v1.96h3.077v8.59h1.975v-8.59H138V9h-8.115zM13.328 11.077c-.107 0-.216.008-.32.023l-.2.03.062.194c.24.746.123 1.27-.362 1.649-.511.398-1.072.385-1.695-.032l-.154-.102-.089.163c-.511.927.108 2.502.955 3.093a2.826 2.826 0 0 0 3.427-.12c.898-.73 1.229-2.142.756-3.211-.451-1.025-1.385-1.687-2.38-1.687z" fill="#fff"/><path fill-rule="evenodd" clip-rule="evenodd" d="M21.141 13.157a.422.422 0 0 1 0-.842c.234 0 .425.188.425.42a.424.424 0 0 1-.425.422zm-2.913.813a4.359 4.359 0 0 1-3.357 4.246 9.907 9.907 0 0 1-1.402.091l-.208-.003c-2.184-.285-3.83-2.148-3.83-4.334 0-2.267 1.78-4.18 4.04-4.358l.137-.002c.398 0 .792.03 1.16.086 2.005.436 3.46 2.233 3.46 4.274zm-11.601.944c.234 0 .424.19.424.424a.423.423 0 0 1-.847 0c0-.233.19-.424.423-.424zm20.36-9.074c0-.63-.432-.85-.756-.96a85.82 85.82 0 0 1-2.757-.997l-.27-.102c-1.267-.477-2.577-.97-3.854-1.48-.962-.382-1.919-.774-2.875-1.165-.708-.29-1.415-.58-2.125-.866-.307-.123-.6-.274-.768-.27-.189.004-.444.113-.705.213-.087.035-.219.079-.292.108l-.032.013C11.183.898 9.769 1.48 8.37 2.035c-1.083.431-2.162.841-3.449 1.325A244.478 244.478 0 0 1 .864 4.862c-.422.15-.813.37-.824.94l-.018.765c-.015.527-.03 1.07-.018 1.605.015.91.058 1.71.133 2.446.068.685.163 1.359.266 2.071.04.286.082.575.122.87l.041.304.62-.53c.275-.231.524-.442.764-.662.121-.111.243-.313.227-.49a16.62 16.62 0 0 0-.097-.8c-.043-.32-.088-.65-.106-.973-.056-.971-.095-1.955-.133-2.906L1.8 6.492l.678-.244c.588-.21 1.147-.41 1.7-.622C5.32 5.19 6.553 4.71 7.946 4.159c.728-.288 1.455-.58 2.182-.87 1.06-.423 2.121-.847 3.183-1.265a.624.624 0 0 1 .383-.007c.788.315 1.572.635 2.357.957 1.15.47 2.34.956 3.518 1.415a201.57 201.57 0 0 0 3.956 1.481c.548.2 1.095.402 1.643.604.002.023.005.042.003.058-.014.398-.024.797-.037 1.195a83.91 83.91 0 0 1-.151 3.469l-.006.112c-.018.341-.041.767-.352 1.035-.938.812-3.705 2.757-5.268 3.778a5.845 5.845 0 0 0 .197-3.72c.097.099.199.204.3.313v.001c0 .687.563 1.246 1.254 1.246.69 0 1.253-.559 1.253-1.246a1.25 1.25 0 0 0-1.008-1.219 11.128 11.128 0 0 0-.602-.585c-1.744-1.509-3.263-2.687-5.572-3.002-2.229-.307-4.241.005-6.161.952-1.324.655-2.513 1.376-3.533 2.14-1.166.876-2.284 1.849-3.364 2.79-.321.28-.643.561-.968.839-.16.14-.253.457-.194.666.201.683.435 1.357.697 2.103.82 2.342 2.141 4.481 4.038 6.545 2.34 2.54 5.166 4.37 7.365 5.682a.898.898 0 0 0 .462.143c.157 0 .307-.05.459-.152.363-.241.727-.478 1.091-.716.77-.502 1.567-1.02 2.332-1.561a24 24 0 0 0 5.142-4.933c1.397-1.807 2.47-3.853 3.282-6.256.088-.263.152-.532.225-.843.032-.135.066-.279.105-.433l.12-.481-.389.312c-.195.158-.38.305-.56.447-.389.308-.757.598-1.102.903a2.45 2.45 0 0 0-.616.814 20.033 20.033 0 0 1-2.678 4.595c-1.79 2.298-4.165 4.313-7.261 6.16a.394.394 0 0 1-.175.034.282.282 0 0 1-.133-.024c-.284-.19-.57-.379-.855-.568-.999-.663-2.033-1.347-2.99-2.092a19.472 19.472 0 0 1-4.532-4.954 18.705 18.705 0 0 1-1.775-3.659l-.037-.1c-.283-.772-.283-.772.379-1.322l.098-.088.063-.06c.274-.236.508-.432.796-.674l.198-.164-.002-.007c.13-.112.457-.373.706-.571l.453-.362c.79-.623 1.715-1.328 2.568-1.833.079-.047.16-.093.242-.14a5.828 5.828 0 0 0-.782 2.929c0 .628.098 1.24.29 1.826a9.58 9.58 0 0 1-.304-.32.942.942 0 0 0 .008-.12 1.25 1.25 0 0 0-1.253-1.245 1.25 1.25 0 0 0-1.253 1.245c0 .537.355 1.015.869 1.183.17.185.288.303.347.352 1.4 1.45 3.672 3.179 6.546 3.179h.104c3.42-.05 5.458-1.361 6.675-2.144.204-.132.38-.245.532-.331 1.046-.593 2.495-1.66 3.26-2.24.635-.446 1.08-.848 1.55-1.273.329-.295.666-.6 1.093-.945.073-.058.243-.216.27-.408.032-.222.065-.445.1-.666.104-.684.213-1.39.244-2.094.039-.94.03-1.897.022-2.824-.003-.435-.007-.87-.006-1.305z" fill="#fff"/></svg>