<svg width="122" height="68" viewBox="0 0 122 68" fill="none" xmlns="http://www.w3.org/2000/svg">
<path fill-rule="evenodd" clip-rule="evenodd" d="M2.50323 57.4165H6.09589C6.50525 57.4165 6.85602 57.5557 7.13993 57.8288C7.42467 58.1041 7.56993 58.4424 7.56993 58.8706C7.56993 59.2646 7.42467 59.6021 7.13993 59.8783C6.85602 60.1537 6.5036 60.2922 6.09589 60.2922H2.50323V57.4165ZM9.37988 61.0348C9.58208 60.7466 9.7455 60.4275 9.86765 60.0868C10.0055 59.7024 10.0732 59.2933 10.0732 58.8364C10.0732 58.3159 9.96834 57.8152 9.76035 57.3464C9.5499 56.8824 9.26351 56.4709 8.91357 56.1286C8.5562 55.7784 8.13033 55.4998 7.64586 55.3009C7.16221 55.1019 6.63978 55 6.09589 55H0V68H2.50323V62.707H7.02191C7.4288 62.707 7.78121 62.8455 8.06513 63.1193C8.34986 63.3955 8.4943 63.7354 8.4943 64.1652C8.4943 64.5576 8.34986 64.8951 8.06678 65.1697C7.78121 65.4458 7.4288 65.5859 7.02191 65.5859L4.08703 65.5851L3.08508 68H7.02191C7.5625 68 8.08081 67.8989 8.5661 67.6983C9.04479 67.497 9.47066 67.2216 9.83051 66.8817C10.1912 66.5395 10.4792 66.128 10.688 65.6592C10.8952 65.1919 11 64.6881 11 64.127C11 63.4767 10.8424 62.8702 10.5312 62.3218C10.2415 61.8084 9.85362 61.377 9.37988 61.0348Z" fill="white"/>
<path fill-rule="evenodd" clip-rule="evenodd" d="M15 68H24V65.5859H17.4652V62.707H22.916L22.2981 60.2922H17.4652V57.4165H24V55H15V68Z" fill="white"/>
<path fill-rule="evenodd" clip-rule="evenodd" d="M29.2734 55H27V68H34V65.5825H29.2734V55Z" fill="white"/>
<path fill-rule="evenodd" clip-rule="evenodd" d="M45 68H47V55H45V68Z" fill="white"/>
<path fill-rule="evenodd" clip-rule="evenodd" d="M58.5634 63.4387L53.5706 55H51V68H53.4358V59.5613L58.4277 68H61V55H58.5634V63.4387Z" fill="white"/>
<path fill-rule="evenodd" clip-rule="evenodd" d="M78.2611 61.4119C77.9854 61.2273 77.7302 61.0741 77.4712 60.9461C77.2077 60.8182 76.9624 60.7041 76.7408 60.6114C76.5153 60.5156 76.3173 60.4436 76.1489 60.3938C75.9928 60.3501 75.8938 60.3187 75.7978 60.2797L74.928 60.043C74.6987 59.9771 74.4687 59.8852 74.2478 59.7718C73.9995 59.64 73.7992 59.4883 73.6468 59.3137C73.4617 59.1168 73.3658 58.8701 73.3658 58.5844C73.3658 58.1056 73.6019 57.7279 74.0673 57.4384C74.2425 57.3464 74.4375 57.2721 74.6599 57.2139C75.4459 57.0278 76.1566 57.1496 76.8223 57.4705C77.1033 57.6092 77.389 57.8176 77.6723 58.0872L77.8345 58.2435L79.4737 56.5788L79.2886 56.4172C79.2208 56.3567 79.1439 56.2923 79.0624 56.2265C78.9512 56.1361 78.8057 56.0349 78.6008 55.9062C78.2527 55.7025 77.7881 55.4995 77.2214 55.3026C76.638 55.1027 75.9159 55 75.0712 55C74.6119 55 74.1351 55.0659 73.656 55.1946C73.1754 55.3279 72.7328 55.5493 72.3367 55.8549C71.9422 56.1598 71.617 56.562 71.3725 57.05C71.1249 57.5379 71 58.1416 71 58.8464C71 59.9227 71.5492 60.8397 72.6368 61.5728C73.0885 61.8769 73.557 62.1213 74.03 62.3021C74.4794 62.476 74.8381 62.6024 75.0674 62.6667C75.1275 62.6928 75.1633 62.705 75.1892 62.7096C75.2395 62.738 75.2944 62.754 75.3271 62.754C75.3698 62.7632 75.4185 62.7747 75.4832 62.8C75.663 62.8575 75.8732 62.921 76.1078 62.9923C76.3356 63.062 76.5443 63.1509 76.7674 63.2742C76.9997 63.3784 77.2008 63.5232 77.3509 63.6994C77.5436 63.9116 77.638 64.1467 77.638 64.4171C77.638 64.8622 77.4575 65.2123 77.0957 65.482C76.9182 65.6038 76.7042 65.7041 76.462 65.7761C76.2251 65.8512 75.9562 65.888 75.6683 65.888C75.516 65.888 75.3157 65.8704 75.0544 65.8359C74.8054 65.8029 74.5372 65.7279 74.2585 65.616C73.8251 65.4421 73.429 65.2016 73.0801 64.9013L72.9202 64.7611L71.3092 66.3783L71.5172 66.5384C72.0031 66.9099 72.6049 67.2447 73.3033 67.5289C74.0658 67.8407 74.9493 68 75.9296 68C76.5458 68 77.1125 67.9104 77.6068 67.7334C78.1141 67.5503 78.5467 67.2914 78.891 66.9643C79.2459 66.6333 79.5224 66.2243 79.7121 65.7486C79.9025 65.2805 80 64.742 80 64.1513C80 63.0995 79.4143 62.1757 78.2611 61.4119Z" fill="white"/>
<path fill-rule="evenodd" clip-rule="evenodd" d="M94.6761 61.4979C94.6761 62.0588 94.5711 62.5959 94.3674 63.1009C94.1613 63.6066 93.8572 64.0655 93.4643 64.4601C93.0576 64.8631 92.5987 65.1689 92.0986 65.3665C91.1059 65.7749 89.9163 65.7803 88.9068 65.3665C88.4051 65.162 87.9516 64.8578 87.5579 64.4601C87.1642 64.0678 86.8548 63.6104 86.6418 63.0986C86.4312 62.5906 86.3239 62.0519 86.3239 61.4979C86.3239 60.9478 86.4312 60.4122 86.6418 59.9058C86.8525 59.4039 87.1596 58.9495 87.5594 58.5542C87.9478 58.1603 88.3989 57.8523 88.9068 57.637C89.3978 57.4309 89.9485 57.3221 90.5 57.3221C91.0515 57.3221 91.603 57.4309 92.1001 57.637C92.6079 57.8485 93.0668 58.1573 93.4628 58.5549C93.8557 58.948 94.1613 59.4024 94.3674 59.9081C94.5711 60.4061 94.6761 60.9417 94.6761 61.4979ZM95.0981 56.8991C94.5129 56.3122 93.8166 55.8433 93.0292 55.5054C91.4506 54.8296 89.5402 54.8334 87.9731 55.5054C87.1857 55.8433 86.4886 56.3122 85.9042 56.8991C85.3144 57.4876 84.8464 58.1841 84.5101 58.9702C84.1716 59.7594 84 60.6099 84 61.4979C84 62.3883 84.1716 63.238 84.5101 64.0272C84.8449 64.8103 85.3129 65.5075 85.9042 66.1013C86.4955 66.6921 87.1949 67.1587 87.9715 67.492C88.7544 67.8276 89.6054 68 90.5015 68C91.3947 68 92.2456 67.8276 93.0292 67.492C93.809 67.1587 94.5052 66.6921 95.0981 66.1013C95.6787 65.5228 96.1467 64.8248 96.4899 64.0272C96.8307 63.2357 97 62.3852 97 61.4979C97 60.6114 96.8307 59.7609 96.4899 58.9702C96.1505 58.1764 95.6825 57.4799 95.0981 56.8991Z" fill="white"/>
<path fill-rule="evenodd" clip-rule="evenodd" d="M100 68H102.463V62.707H107.917L107.304 60.2922H102.463V57.4165H109V55H100V68Z" fill="white"/>
<path fill-rule="evenodd" clip-rule="evenodd" d="M112 55V57.4165H115.792V68H118.226V57.4165H122V55H112Z" fill="white"/>
<path fill-rule="evenodd" clip-rule="evenodd" d="M59.2512 16C59.097 16 58.9396 16.0115 58.7896 16.0329L58.5001 16.0766L58.5906 16.3575C58.9356 17.4348 58.7684 18.1909 58.0671 18.7386C57.3283 19.3135 56.5185 19.2954 55.619 18.6933L55.3964 18.5459L55.2684 18.7806C54.5295 20.119 55.4233 22.3939 56.6473 23.248C57.3544 23.7397 58.1739 24 59.0204 24C59.9549 24 60.8691 23.6722 61.5981 23.0759C62.8939 22.02 63.3726 19.9815 62.6892 18.4363C62.0376 16.9562 60.6888 16 59.2512 16Z" fill="white"/>
<path fill-rule="evenodd" clip-rule="evenodd" d="M70.5373 19.0042C70.2011 19.0042 69.9281 18.7317 69.9281 18.3949C69.9281 18.0597 70.2011 17.7888 70.5373 17.7888C70.8742 17.7888 71.1505 18.0597 71.1505 18.3949C71.1505 18.7317 70.8742 19.0042 70.5373 19.0042ZM66.3287 20.1782C66.3287 23.1078 64.3263 25.6323 61.4806 26.3114C60.8547 26.4004 60.1912 26.4433 59.455 26.4433L59.154 26.4385C56.0002 26.0279 53.6233 23.3358 53.6233 20.1782C53.6233 16.9039 56.1934 14.1404 59.459 13.8838L59.6562 13.8806C60.2311 13.8806 60.7996 13.9235 61.3313 14.0053C64.2281 14.6345 66.3287 17.2312 66.3287 20.1782ZM49.572 21.5429C49.9106 21.5429 50.1852 21.8178 50.1852 22.1554C50.1852 22.4882 49.9106 22.7615 49.572 22.7615C49.2351 22.7615 48.962 22.4882 48.962 22.1554C48.962 21.8178 49.2351 21.5429 49.572 21.5429ZM78.9815 8.43613C78.9815 7.52501 78.3571 7.20727 77.8892 7.0476C76.5087 6.58132 75.1594 6.08008 73.9075 5.60903L73.5162 5.46207C71.687 4.77257 69.7939 4.06004 67.9495 3.32288C66.5611 2.7724 65.1782 2.20523 63.7969 1.64044C62.7749 1.22102 61.7529 0.803195 60.7277 0.390132C60.2838 0.212197 59.8606 -0.00545607 59.6179 0.000104402C59.3456 0.00566487 58.9768 0.162947 58.6007 0.308313C58.4745 0.357563 58.2845 0.421111 58.1791 0.464006L58.132 0.483071C56.1543 1.29649 54.1111 2.1385 52.0919 2.94C50.5277 3.56198 48.9684 4.15457 47.1097 4.8528C45.0242 5.64001 43.1438 6.3446 41.2484 7.02218C40.6392 7.23904 40.0731 7.55599 40.0571 8.37973C40.0507 8.74831 40.0411 9.11768 40.0316 9.48547C40.0108 10.2465 39.9892 11.0321 40.006 11.8042C40.0276 13.1188 40.089 14.2746 40.1976 15.3375C40.2966 16.3264 40.434 17.2995 40.5825 18.329C40.6408 18.7421 40.6998 19.1599 40.7581 19.5865L40.818 20.0249L41.7131 19.26C42.1107 18.9248 42.47 18.6205 42.8173 18.3028C42.9921 18.1415 43.1678 17.8508 43.1438 17.595C43.1103 17.2074 43.0568 16.8245 43.0049 16.4384C42.9426 15.9777 42.878 15.5011 42.8516 15.0332C42.771 13.6312 42.7135 12.2093 42.6592 10.8367L42.5993 9.37664L43.5798 9.02474C44.4293 8.72051 45.2357 8.43216 46.0342 8.12633C47.6861 7.498 49.4658 6.80532 51.4771 6.00779C52.5294 5.59076 53.5786 5.17055 54.6293 4.75113C56.1607 4.13948 57.6937 3.52703 59.2275 2.92412C59.3888 2.86295 59.6403 2.85898 59.78 2.91379C60.9185 3.36895 62.0507 3.83127 63.1845 4.29596C64.8452 4.97355 66.5643 5.67655 68.2665 6.33904C70.1612 7.07938 72.1022 7.79111 73.9809 8.47902C74.7714 8.76896 75.5626 9.0597 76.3539 9.35202C76.3562 9.38459 76.3602 9.41159 76.3578 9.43542C76.3387 10.0105 76.3227 10.5856 76.3044 11.1616C76.2564 12.8051 76.2045 14.5058 76.0864 16.1715L76.0776 16.3344C76.0512 16.8269 76.0185 17.4417 75.5698 17.8293C74.2149 19.001 70.2179 21.8114 67.9599 23.2858C68.348 22.2968 68.5524 21.2371 68.5524 20.1782C68.5524 19.4053 68.4486 18.6459 68.2442 17.9112C68.3847 18.0549 68.5316 18.2075 68.6777 18.3639V18.3663C68.6777 19.3585 69.4905 20.1663 70.4886 20.1663C71.4866 20.1663 72.2986 19.3585 72.2986 18.3663C72.2986 17.5084 71.6806 16.7737 70.8431 16.606C70.4279 16.1811 70.158 15.9189 69.9744 15.7601C67.4545 13.5812 65.2604 11.8789 61.9254 11.4237C58.7061 10.9804 55.799 11.4316 53.026 12.7987C51.113 13.7456 49.3956 14.7862 47.9225 15.8911C46.2386 17.1557 44.6241 18.5609 43.064 19.9201C42.5993 20.326 42.1346 20.7311 41.6659 21.1323C41.4344 21.3356 41.3003 21.7924 41.3849 22.0942C41.6755 23.0808 42.0133 24.0539 42.3925 25.1318C43.5766 28.515 45.4848 31.605 48.2251 34.5854C51.6056 38.2545 55.6864 40.8989 58.8634 42.7935C59.0973 42.9325 59.3161 43 59.5309 43C59.7568 43 59.9732 42.9277 60.1928 42.78C60.7181 42.432 61.2435 42.0897 61.7697 41.7465C62.8827 41.0213 64.0332 40.273 65.1375 39.4906C67.9511 37.5007 70.451 35.1041 72.5653 32.366C74.5829 29.7558 76.1327 26.8008 77.3056 23.3294C77.4325 22.949 77.5252 22.5613 77.6305 22.1117C77.6777 21.9171 77.7256 21.709 77.7831 21.4865L77.9555 20.7907L77.3942 21.2419C77.1124 21.4699 76.8441 21.6828 76.5862 21.8877C76.0233 22.3325 75.4915 22.7512 74.9925 23.192C74.5933 23.5479 74.2787 23.9665 74.1039 24.3677C73.0619 26.8341 71.7964 29.0043 70.2355 31.0053C67.6501 34.3241 64.2193 37.2354 59.7465 39.9028C59.7025 39.9274 59.6083 39.9521 59.4949 39.9521C59.3848 39.9521 59.3209 39.929 59.3025 39.9171C58.8921 39.6423 58.4793 39.3698 58.0673 39.0965C56.6246 38.1394 55.1307 37.1512 53.7478 36.0756C51.1194 34.0349 48.9173 31.6265 47.2015 28.9193C46.1851 27.3115 45.3451 25.583 44.6377 23.6345L44.5842 23.4883C44.1754 22.3738 44.1754 22.3738 45.1319 21.5795C45.1814 21.5374 45.227 21.4945 45.2733 21.4524L45.3651 21.3658C45.7611 21.025 46.098 20.7422 46.514 20.3927L46.7999 20.1552L46.7983 20.1457C46.9867 19.9844 47.4578 19.6071 47.8179 19.3203C48.0598 19.1281 48.2953 18.9399 48.471 18.7977C49.6135 17.8977 50.9493 16.8801 52.1813 16.1509C52.2947 16.0826 52.4112 16.0158 52.531 15.9483C51.7893 17.232 51.4012 18.6785 51.4012 20.1782C51.4012 21.0862 51.5426 21.9695 51.8204 22.8171C51.6687 22.6646 51.5226 22.5097 51.3813 22.354C51.3877 22.2984 51.3924 22.2404 51.3924 22.1808C51.3924 21.1887 50.5812 20.3832 49.5824 20.3832C48.5852 20.3832 47.7732 21.1887 47.7732 22.1808C47.7732 22.9561 48.285 23.6472 49.0275 23.8895C49.2726 24.1564 49.4435 24.3279 49.5297 24.3986C51.5505 26.4926 54.8329 28.99 58.9839 28.99L59.1341 28.9892C64.0756 28.9177 67.0186 27.024 68.7767 25.8928C69.0713 25.703 69.326 25.5393 69.544 25.4146C71.0555 24.5583 73.1489 23.0173 74.254 22.1784C75.1706 21.5358 75.8125 20.9551 76.492 20.3403C76.967 19.9153 77.4541 19.4745 78.0713 18.9764C78.1767 18.8922 78.4218 18.6642 78.4609 18.3862C78.508 18.0653 78.5551 17.7436 78.6054 17.4242C78.7555 16.4368 78.9136 15.4161 78.9583 14.4001C79.0142 13.041 79.0015 11.6596 78.9903 10.3211C78.9855 9.69279 78.9799 9.06446 78.9815 8.43613Z" fill="white"/>
</svg>
