<svg width="39" height="43" viewBox="0 0 39 43" fill="none" xmlns="http://www.w3.org/2000/svg">
<path fill-rule="evenodd" clip-rule="evenodd" d="M30.5373 19.0042C30.2011 19.0042 29.9281 18.7317 29.9281 18.3949C29.9281 18.0597 30.2011 17.7888 30.5373 17.7888C30.8742 17.7888 31.1505 18.0597 31.1505 18.3949C31.1505 18.7317 30.8742 19.0042 30.5373 19.0042ZM26.3287 20.1782C26.3287 23.1078 24.3263 25.6323 21.4806 26.3114C20.8547 26.4004 20.1912 26.4433 19.455 26.4433L19.154 26.4385C16.0002 26.0279 13.6233 23.3358 13.6233 20.1782C13.6233 16.9039 16.1934 14.1404 19.459 13.8838L19.6562 13.8806C20.2311 13.8806 20.7996 13.9235 21.3313 14.0053C24.2281 14.6345 26.3287 17.2312 26.3287 20.1782ZM9.57202 21.5429C9.91056 21.5429 10.1852 21.8178 10.1852 22.1554C10.1852 22.4882 9.91056 22.7615 9.57202 22.7615C9.23508 22.7615 8.96202 22.4882 8.96202 22.1554C8.96202 21.8178 9.23508 21.5429 9.57202 21.5429ZM38.9815 8.43613C38.9815 7.52501 38.3571 7.20727 37.8892 7.0476C36.5087 6.58132 35.1594 6.08008 33.9075 5.60903L33.5162 5.46207C31.687 4.77257 29.7939 4.06004 27.9495 3.32288C26.5611 2.7724 25.1782 2.20523 23.7969 1.64044C22.7749 1.22102 21.7529 0.803195 20.7277 0.390132C20.2838 0.212197 19.8606 -0.00545607 19.6179 0.000104401C19.3456 0.00566487 18.9768 0.162947 18.6007 0.308313C18.4745 0.357563 18.2845 0.421111 18.1791 0.464006L18.132 0.483071C16.1543 1.29649 14.1111 2.1385 12.0919 2.94C10.5277 3.56198 8.96841 4.15457 7.10966 4.8528C5.02415 5.64001 3.14384 6.3446 1.24836 7.02218C0.639158 7.23904 0.0730691 7.55599 0.0571005 8.37973C0.050713 8.74831 0.0411318 9.11768 0.0315506 9.48547C0.0107914 10.2465 -0.0107663 11.0321 0.00600079 11.8042C0.0275585 13.1188 0.0890378 14.2746 0.197625 15.3375C0.29663 16.3264 0.433961 17.2995 0.582469 18.329C0.640755 18.7421 0.699839 19.1599 0.758124 19.5865L0.818007 20.0249L1.71305 19.26C2.11067 18.9248 2.46996 18.6205 2.81728 18.3028C2.99214 18.1415 3.16779 17.8508 3.14384 17.595C3.11031 17.2074 3.05681 16.8245 3.00491 16.4384C2.94264 15.9777 2.87796 15.5011 2.85161 15.0332C2.77097 13.6312 2.71349 12.2093 2.65919 10.8367L2.59931 9.37664L3.57979 9.02474C4.42932 8.72051 5.23573 8.43216 6.03417 8.12633C7.68612 7.498 9.46583 6.80532 11.4771 6.00779C12.5294 5.59076 13.5786 5.17055 14.6293 4.75113C16.1607 4.13948 17.6937 3.52703 19.2275 2.92412C19.3888 2.86295 19.6403 2.85898 19.78 2.91379C20.9186 3.36895 22.0507 3.83127 23.1845 4.29596C24.8452 4.97355 26.5643 5.67655 28.2665 6.33904C30.1612 7.07938 32.1022 7.79111 33.9809 8.47902C34.7714 8.76896 35.5626 9.0597 36.3539 9.35202C36.3562 9.38459 36.3602 9.41159 36.3578 9.43542C36.3387 10.0105 36.3227 10.5856 36.3043 11.1616C36.2564 12.8051 36.2045 14.5058 36.0864 16.1715L36.0776 16.3344C36.0512 16.8269 36.0185 17.4417 35.5698 17.8293C34.2149 19.001 30.2179 21.8114 27.9599 23.2858C28.348 22.2968 28.5524 21.2371 28.5524 20.1782C28.5524 19.4053 28.4486 18.6459 28.2442 17.9112C28.3847 18.0549 28.5316 18.2075 28.6777 18.3639C28.6777 18.3639 28.6777 18.3655 28.6777 18.3663C28.6777 19.3585 29.4905 20.1663 30.4886 20.1663C31.4866 20.1663 32.2986 19.3585 32.2986 18.3663C32.2986 17.5084 31.6806 16.7737 30.8431 16.606C30.4279 16.1811 30.158 15.9189 29.9744 15.7601C27.4545 13.5812 25.2604 11.8789 21.9254 11.4237C18.7061 10.9804 15.799 11.4316 13.026 12.7987C11.113 13.7456 9.39557 14.7862 7.92246 15.8911C6.23857 17.1557 4.62414 18.5609 3.064 19.9201C2.59931 20.326 2.13462 20.7311 1.66594 21.1323C1.4344 21.3356 1.30026 21.7924 1.38489 22.0942C1.67552 23.0808 2.01326 24.0539 2.39252 25.1318C3.57659 28.515 5.48485 31.605 8.22507 34.5854C11.6056 38.2545 15.6864 40.8989 18.8634 42.7935C19.0973 42.9325 19.3161 43 19.5309 43C19.7568 43 19.9732 42.9277 20.1928 42.78C20.7181 42.432 21.2435 42.0897 21.7697 41.7465C22.8827 41.0213 24.0332 40.273 25.1375 39.4906C27.9511 37.5007 30.451 35.1041 32.5653 32.366C34.5829 29.7558 36.1327 26.8008 37.3056 23.3294C37.4325 22.949 37.5252 22.5613 37.6305 22.1117C37.6777 21.9171 37.7256 21.709 37.783 21.4865L37.9555 20.7907L37.3942 21.2419C37.1124 21.4699 36.8441 21.6828 36.5862 21.8877C36.0233 22.3325 35.4915 22.7512 34.9925 23.192C34.5933 23.5479 34.2787 23.9665 34.1039 24.3677C33.0619 26.8341 31.7964 29.0043 30.2355 31.0053C27.6501 34.3241 24.2193 37.2354 19.7465 39.9028C19.7025 39.9274 19.6083 39.9521 19.4949 39.9521C19.3848 39.9521 19.3209 39.929 19.3025 39.9171C18.8921 39.6423 18.4793 39.3698 18.0673 39.0965C16.6246 38.1394 15.1307 37.1512 13.7478 36.0756C11.1194 34.0349 8.91731 31.6265 7.20148 28.9193C6.18507 27.3115 5.34512 25.583 4.63771 23.6345L4.58421 23.4883C4.17542 22.3738 4.17542 22.3738 5.13194 21.5795C5.18144 21.5374 5.22695 21.4945 5.27326 21.4524L5.36508 21.3658C5.7611 21.025 6.09804 20.7422 6.51403 20.3927L6.79986 20.1552L6.79827 20.1457C6.9867 19.9844 7.45777 19.6071 7.81787 19.3203C8.05979 19.1281 8.29533 18.9399 8.47098 18.7977C9.61354 17.8977 10.9493 16.8801 12.1813 16.1509C12.2947 16.0826 12.4112 16.0158 12.531 15.9483C11.7893 17.232 11.4012 18.6785 11.4012 20.1782C11.4012 21.0862 11.5426 21.9695 11.8204 22.8171C11.6687 22.6646 11.5226 22.5097 11.3813 22.354C11.3877 22.2984 11.3924 22.2404 11.3924 22.1808C11.3924 21.1887 10.5812 20.3832 9.5824 20.3832C8.58516 20.3832 7.77315 21.1887 7.77315 22.1808C7.77315 22.9561 8.28495 23.6472 9.02749 23.8895C9.27261 24.1564 9.44348 24.3279 9.52971 24.3986C11.5505 26.4926 14.8329 28.99 18.9839 28.99L19.1341 28.9892C24.0756 28.9177 27.0186 27.024 28.7767 25.8928C29.0713 25.703 29.326 25.5393 29.544 25.4146C31.0555 24.5583 33.1489 23.0173 34.254 22.1784C35.1706 21.5358 35.8125 20.9551 36.492 20.3403C36.967 19.9153 37.4541 19.4745 38.0713 18.9764C38.1767 18.8922 38.4218 18.6642 38.4609 18.3862C38.508 18.0653 38.5551 17.7436 38.6054 17.4242C38.7555 16.4368 38.9136 15.4161 38.9583 14.4001C39.0142 13.041 39.0015 11.6596 38.9903 10.3211C38.9855 9.69279 38.9799 9.06446 38.9815 8.43613Z" fill="white"/>
</svg>
