<svg width="138" height="30" viewBox="0 0 138 30" fill="none" xmlns="http://www.w3.org/2000/svg">
<path fill-rule="evenodd" clip-rule="evenodd" d="M41.0313 10.961H43.9467C44.2788 10.961 44.5635 11.074 44.7939 11.2956C45.0249 11.519 45.1428 11.7935 45.1428 12.141C45.1428 12.4607 45.0249 12.7346 44.7939 12.9587C44.5635 13.1822 44.2775 13.2946 43.9467 13.2946H41.0313V10.961ZM46.6115 13.8971C46.7756 13.6633 46.9082 13.4043 47.0074 13.1278C47.1192 12.8159 47.1741 12.4839 47.1741 12.1131C47.1741 11.6907 47.0891 11.2845 46.9203 10.9041C46.7495 10.5275 46.5171 10.1936 46.2331 9.91586C45.9431 9.63167 45.5976 9.40561 45.2044 9.24414C44.812 9.08267 44.388 9 43.9467 9H39V19.5492H41.0313V15.2541H44.6981C45.0283 15.2541 45.3143 15.3665 45.5447 15.5886C45.7757 15.8128 45.8929 16.0885 45.8929 16.4373C45.8929 16.7557 45.7757 17.0296 45.546 17.2524C45.3143 17.4765 45.0283 17.5902 44.6981 17.5902L42.3165 17.5896L41.5035 19.5492H44.6981C45.1368 19.5492 45.5574 19.4672 45.9512 19.3044C46.3396 19.141 46.6852 18.9175 46.9772 18.6417C47.2699 18.364 47.5036 18.0301 47.6731 17.6496C47.8412 17.2705 47.9262 16.8617 47.9262 16.4063C47.9262 15.8786 47.7983 15.3865 47.5458 14.9415C47.3107 14.5249 46.996 14.1748 46.6115 13.8971Z" fill="white"/>
<path fill-rule="evenodd" clip-rule="evenodd" d="M51.1722 19.5492H58.4755V17.5902H53.1726V15.2541H57.5958L57.0944 13.2945H53.1726V10.9609H58.4755V9H51.1722V19.5492Z" fill="white"/>
<path fill-rule="evenodd" clip-rule="evenodd" d="M62.7546 9H60.9098V19.5492H66.5901V17.5875H62.7546V9Z" fill="white"/>
<path fill-rule="evenodd" clip-rule="evenodd" d="M75.5164 19.5492H77.1394V9H75.5164V19.5492Z" fill="white"/>
<path fill-rule="evenodd" clip-rule="evenodd" d="M86.5228 15.8478L82.4713 9H80.3853V19.5492H82.3619V12.7014L86.4127 19.5492H88.5V9H86.5228V15.8478Z" fill="white"/>
<path fill-rule="evenodd" clip-rule="evenodd" d="M102.507 14.2031C102.283 14.0533 102.076 13.929 101.866 13.8251C101.652 13.7213 101.453 13.6287 101.273 13.5535C101.09 13.4758 100.93 13.4174 100.793 13.3769C100.666 13.3415 100.586 13.316 100.508 13.2843L99.8022 13.0922C99.6161 13.0388 99.4295 12.9642 99.2502 12.8722C99.0487 12.7653 98.8862 12.6422 98.7626 12.5004C98.6124 12.3407 98.5345 12.1405 98.5345 11.9086C98.5345 11.5201 98.7261 11.2136 99.1037 10.9787C99.2459 10.9041 99.4041 10.8438 99.5846 10.7965C100.222 10.6455 100.799 10.7443 101.339 11.0048C101.567 11.1173 101.799 11.2864 102.029 11.5052L102.161 11.632L103.491 10.2812L103.341 10.15C103.286 10.1009 103.223 10.0487 103.157 9.99524C103.067 9.92189 102.949 9.83983 102.783 9.7354C102.5 9.57004 102.123 9.40531 101.663 9.24555C101.19 9.0833 100.604 9 99.9184 9C99.5457 9 99.1587 9.05346 98.77 9.1579C98.38 9.26606 98.0209 9.44571 97.6994 9.69375C97.3793 9.94116 97.1154 10.2675 96.917 10.6635C96.7161 11.0595 96.6147 11.5493 96.6147 12.1212C96.6147 12.9946 97.0603 13.7387 97.943 14.3336C98.3095 14.5804 98.6896 14.7787 99.0734 14.9254C99.4381 15.0666 99.7292 15.1691 99.9153 15.2213C99.9641 15.2425 99.9932 15.2524 100.014 15.2562C100.055 15.2792 100.099 15.2922 100.126 15.2922C100.161 15.2997 100.2 15.309 100.253 15.3295C100.399 15.3761 100.569 15.4277 100.76 15.4855C100.944 15.5421 101.114 15.6142 101.295 15.7143C101.483 15.7988 101.647 15.9163 101.768 16.0593C101.925 16.2315 102.001 16.4223 102.001 16.6418C102.001 17.003 101.855 17.287 101.561 17.5059C101.417 17.6047 101.244 17.6861 101.047 17.7446C100.855 17.8055 100.637 17.8353 100.403 17.8353C100.279 17.8353 100.117 17.821 99.9048 17.7931C99.7027 17.7663 99.4851 17.7054 99.2589 17.6146C98.9072 17.4735 98.5858 17.2783 98.3027 17.0347L98.1729 16.9209L96.8656 18.2332L97.0344 18.3631C97.4287 18.6646 97.917 18.9362 98.4838 19.1669C99.1025 19.4199 99.8195 19.5492 100.615 19.5492C101.115 19.5492 101.575 19.4764 101.976 19.3328C102.388 19.1843 102.739 18.9742 103.018 18.7087C103.306 18.4402 103.53 18.1082 103.684 17.7222C103.839 17.3424 103.918 16.9054 103.918 16.4261C103.918 15.5726 103.443 14.8229 102.507 14.2031Z" fill="white"/>
<path fill-rule="evenodd" clip-rule="evenodd" d="M115.827 14.273C115.827 14.7281 115.742 15.164 115.577 15.5737C115.41 15.9841 115.163 16.3565 114.844 16.6767C114.514 17.0038 114.142 17.2518 113.736 17.4123C112.93 17.7437 111.965 17.748 111.146 17.4123C110.739 17.2462 110.371 16.9994 110.051 16.6767C109.732 16.3584 109.481 15.9872 109.308 15.5718C109.137 15.1596 109.05 14.7225 109.05 14.273C109.05 13.8266 109.137 13.392 109.308 12.981C109.479 12.5737 109.728 12.205 110.052 11.8842C110.368 11.5646 110.734 11.3147 111.146 11.1399C111.544 10.9727 111.991 10.8844 112.439 10.8844C112.886 10.8844 113.334 10.9727 113.737 11.1399C114.149 11.3115 114.521 11.5621 114.843 11.8848C115.162 12.2038 115.41 12.5725 115.577 12.9828C115.742 13.387 115.827 13.8216 115.827 14.273ZM116.17 10.5411C115.695 10.0648 115.13 9.68433 114.491 9.41013C113.21 8.86174 111.66 8.86485 110.388 9.41013C109.749 9.68433 109.183 10.0648 108.709 10.5411C108.231 11.0186 107.851 11.5838 107.578 12.2217C107.303 12.8621 107.164 13.5523 107.164 14.2729C107.164 14.9954 107.303 15.6849 107.578 16.3254C107.85 16.9608 108.229 17.5266 108.709 18.0085C109.189 18.4878 109.757 18.8665 110.387 19.137C111.022 19.4093 111.713 19.5492 112.44 19.5492C113.165 19.5492 113.855 19.4093 114.491 19.137C115.124 18.8665 115.689 18.4878 116.17 18.0085C116.641 17.539 117.021 16.9726 117.299 16.3254C117.576 15.6831 117.713 14.9929 117.713 14.2729C117.713 13.5535 117.576 12.8634 117.299 12.2217C117.024 11.5776 116.644 11.0124 116.17 10.5411Z" fill="white"/>
<path fill-rule="evenodd" clip-rule="evenodd" d="M120.148 19.5492H122.147V15.2541H126.572L126.075 13.2945H122.147V10.9609H127.451V9H120.148V19.5492Z" fill="white"/>
<path fill-rule="evenodd" clip-rule="evenodd" d="M129.885 9V10.9609H132.962V19.5492H134.937V10.9609H138V9H129.885Z" fill="white"/>
<path fill-rule="evenodd" clip-rule="evenodd" d="M13.3277 11.0769C13.221 11.0769 13.1121 11.0849 13.0082 11.0997L12.8078 11.13L12.8704 11.3244C13.1092 12.0702 12.9935 12.5937 12.508 12.9729C11.9965 13.3709 11.4359 13.3583 10.8132 12.9415L10.659 12.8394L10.5704 13.002C10.0589 13.9286 10.6777 15.5035 11.5251 16.0948C12.0146 16.4352 12.5819 16.6154 13.1679 16.6154C13.8149 16.6154 14.4478 16.3884 14.9525 15.9756C15.8496 15.2446 16.181 13.8333 15.7079 12.7636C15.2568 11.7389 14.323 11.0769 13.3277 11.0769Z" fill="white"/>
<path fill-rule="evenodd" clip-rule="evenodd" d="M21.1412 13.1568C20.9085 13.1568 20.7195 12.9682 20.7195 12.735C20.7195 12.5029 20.9085 12.3154 21.1412 12.3154C21.3745 12.3154 21.5657 12.5029 21.5657 12.735C21.5657 12.9682 21.3745 13.1568 21.1412 13.1568ZM18.2276 13.9696C18.2276 15.9978 16.8413 17.7455 14.8712 18.2157C14.4379 18.2773 13.9785 18.307 13.4689 18.307L13.2605 18.3037C11.0771 18.0193 9.43151 16.1556 9.43151 13.9696C9.43151 11.7028 11.2108 9.78954 13.4716 9.61191L13.6082 9.60971C14.0062 9.60971 14.3997 9.63941 14.7679 9.69605C16.7733 10.1316 18.2276 11.9293 18.2276 13.9696ZM6.6268 14.9144C6.86117 14.9144 7.05132 15.1047 7.05132 15.3384C7.05132 15.5688 6.86117 15.758 6.6268 15.758C6.39353 15.758 6.20449 15.5688 6.20449 15.3384C6.20449 15.1047 6.39353 14.9144 6.6268 14.9144ZM26.9872 5.8404C26.9872 5.20962 26.5549 4.98965 26.231 4.87911C25.2753 4.5563 24.3411 4.20929 23.4744 3.88317L23.2035 3.78143C21.9372 3.30409 20.6266 2.8108 19.3497 2.30046C18.3884 1.91935 17.4311 1.5267 16.4748 1.13569C15.7672 0.845325 15.0597 0.556058 14.35 0.270091C14.0426 0.146905 13.7497 -0.00377728 13.5816 7.2278e-05C13.3931 0.00392183 13.1378 0.112809 12.8774 0.213448C12.7901 0.247544 12.6585 0.291539 12.5855 0.321235L12.5529 0.334434C11.1837 0.897568 9.76923 1.4805 8.3713 2.03539C7.28844 2.46599 6.2089 2.87624 4.92207 3.35963C3.47826 3.90462 2.17651 4.39241 0.864251 4.86151C0.442494 5.01164 0.0505863 5.23107 0.0395311 5.80135C0.035109 6.05652 0.0284759 6.31224 0.0218427 6.56686C0.00747096 7.0937 -0.00745359 7.63759 0.00415439 8.17213C0.0190789 9.08227 0.0616416 9.88243 0.136817 10.6182C0.205359 11.3029 0.300434 11.9766 0.403248 12.6893C0.443599 12.9753 0.484504 13.2645 0.524855 13.5599L0.566312 13.8634L1.18596 13.3338C1.46123 13.1018 1.70998 12.8911 1.95043 12.6712C2.07148 12.5595 2.19309 12.3582 2.17651 12.1812C2.15329 11.9128 2.11625 11.6477 2.08033 11.3805C2.03721 11.0615 1.99244 10.7315 1.9742 10.4076C1.91837 9.43698 1.87857 8.45259 1.84098 7.5023L1.79952 6.49152L2.47831 6.2479C3.06645 6.03727 3.62474 5.83765 4.1775 5.62592C5.32116 5.19092 6.55327 4.71138 7.94567 4.15924C8.67421 3.87052 9.40054 3.57961 10.128 3.28924C11.1882 2.86579 12.2495 2.44179 13.3113 2.02439C13.423 1.98204 13.5971 1.97929 13.6938 2.01724C14.4821 2.33235 15.2659 2.65242 16.0508 2.97413C17.2006 3.44322 18.3906 3.92992 19.5691 4.38856C20.8808 4.90111 22.2246 5.39385 23.5252 5.87009C24.0725 6.07082 24.6203 6.2721 25.1681 6.47447C25.1697 6.49702 25.1725 6.51572 25.1708 6.53222C25.1575 6.93037 25.1465 7.32852 25.1338 7.72723C25.1006 8.86505 25.0647 10.0425 24.9829 11.1957L24.9768 11.3084C24.9586 11.6494 24.9359 12.075 24.6252 12.3434C23.6872 13.1546 20.9201 15.1002 19.3569 16.1209C19.6255 15.4362 19.767 14.7026 19.767 13.9696C19.767 13.4345 19.6952 12.9087 19.5537 12.4C19.6509 12.4996 19.7527 12.6052 19.8538 12.7135C19.8538 12.7135 19.8538 12.7146 19.8538 12.7152C19.8538 13.402 20.4165 13.9613 21.1075 13.9613C21.7984 13.9613 22.3606 13.402 22.3606 12.7152C22.3606 12.1212 21.9327 11.6125 21.3529 11.4965C21.0655 11.2023 20.8786 11.0208 20.7515 10.9108C19.007 9.40233 17.488 8.22382 15.1791 7.90871C12.9504 7.60184 10.9378 7.91421 9.01803 8.86065C7.69361 9.51617 6.50462 10.2366 5.48478 11.0015C4.31901 11.877 3.20132 12.8499 2.12123 13.7908C1.79952 14.0718 1.47782 14.3523 1.15334 14.63C0.993044 14.7708 0.90018 15.087 0.958773 15.296C1.15998 15.979 1.3938 16.6527 1.65636 17.399C2.4761 19.7411 3.7972 21.8804 5.69428 23.9438C8.03467 26.4839 10.8598 28.3146 13.0593 29.6262C13.2212 29.7225 13.3727 29.7692 13.5214 29.7692C13.6778 29.7692 13.8276 29.7192 13.9796 29.6169C14.3433 29.376 14.707 29.139 15.0713 28.9014C15.8419 28.3993 16.6384 27.8813 17.4029 27.3396C19.3508 25.962 21.0815 24.3029 22.5452 22.4072C23.942 20.6001 25.0149 18.5544 25.8269 16.1512C25.9148 15.8877 25.979 15.6194 26.0519 15.3081C26.0845 15.1734 26.1177 15.0293 26.1575 14.8753L26.2769 14.3936L25.8883 14.7059C25.6932 14.8638 25.5074 15.0111 25.3289 15.153C24.9392 15.461 24.5711 15.7508 24.2256 16.056C23.9492 16.3024 23.7314 16.5922 23.6104 16.8699C22.889 18.5775 22.0129 20.0799 20.9322 21.4652C19.1424 23.7628 16.7672 25.7783 13.6706 27.625C13.6402 27.6421 13.575 27.6591 13.4965 27.6591C13.4202 27.6591 13.376 27.6432 13.3633 27.6349C13.0792 27.4446 12.7934 27.256 12.5082 27.0668C11.5093 26.4042 10.4751 25.72 9.51773 24.9754C7.69804 23.5626 6.17352 21.8952 4.98564 20.0211C4.28197 18.908 3.70047 17.7113 3.21072 16.3623L3.17369 16.2611C2.89067 15.4896 2.89067 15.4896 3.55288 14.9396C3.58715 14.9105 3.61866 14.8808 3.65072 14.8517L3.71429 14.7917C3.98846 14.5558 4.22172 14.36 4.50971 14.118L4.7076 13.9536L4.70649 13.947C4.83694 13.8354 5.16307 13.5742 5.41237 13.3756C5.57986 13.2425 5.74292 13.1122 5.86453 13.0138C6.65553 12.3907 7.5803 11.6862 8.43321 11.1814C8.5117 11.1341 8.5924 11.0879 8.67532 11.0411C8.1618 11.9298 7.89316 12.9313 7.89316 13.9696C7.89316 14.5981 7.991 15.2097 8.18336 15.7964C8.07834 15.6909 7.97718 15.5836 7.87934 15.4758C7.88376 15.4373 7.88708 15.3972 7.88708 15.3559C7.88708 14.6691 7.32547 14.1114 6.63397 14.1114C5.94357 14.1114 5.38141 14.6691 5.38141 15.3559C5.38141 15.8927 5.73573 16.3711 6.2498 16.5389C6.4195 16.7236 6.53779 16.8424 6.59749 16.8914C7.99653 18.341 10.2689 20.07 13.1427 20.07L13.2467 20.0695C16.6677 20.02 18.7052 18.7089 19.9223 17.9258C20.1263 17.7944 20.3026 17.6811 20.4536 17.5947C21.4999 17.0019 22.9493 15.935 23.7143 15.3543C24.3489 14.9094 24.7933 14.5074 25.2637 14.0817C25.5926 13.7875 25.9298 13.4823 26.357 13.1375C26.43 13.0792 26.5997 12.9214 26.6268 12.7289C26.6594 12.5067 26.692 12.284 26.7268 12.0629C26.8308 11.3794 26.9402 10.6727 26.9712 9.96932C27.0099 9.02838 27.001 8.07204 26.9933 7.1454C26.99 6.7104 26.9861 6.2754 26.9872 5.8404Z" fill="white"/>
</svg>
