<svg width="210" height="1354" viewBox="0 0 210 1354" xmlns="http://www.w3.org/2000/svg"><path fill-rule="evenodd" clip-rule="evenodd" fill="#0d0d0d" d="M210 0H0V1354H210V934.51C209.463 944.535 207.639 953.981 204.528 962.848C200.768 973.564 195.786 982.118 189.582 988.51L155.742 968.488C163.826 955.328 167.868 941.886 167.868 928.162C167.868 912.182 162.604 898.928 152.076 888.4C141.736 878.06 127.072 872.89 108.084 872.89C90.788 872.89 76.406 878.436 64.938 889.528C53.846 900.62 48.3 915.002 48.3 932.674C48.3 948.466 53.094 962.754 62.682 975.538L28.842 992.74C22.074 986.724 16.528 977.794 12.204 965.95C8.06798 954.294 5.99997 941.792 5.99997 928.444C5.99997 897.8 15.306 872.89 33.918 853.714C52.906 834.538 77.628 824.95 108.084 824.95C137.788 824.95 162.228 833.974 181.404 852.022C199.115 868.691 208.647 891.614 210 920.791V479.014C209.463 489.039 207.639 498.485 204.528 507.352C200.768 518.068 195.786 526.622 189.582 533.014L155.742 512.992C163.826 499.832 167.868 486.39 167.868 472.666C167.868 456.686 162.604 443.432 152.076 432.904C141.736 422.564 127.072 417.394 108.084 417.394C90.788 417.394 76.406 422.94 64.938 434.032C53.846 445.124 48.3 459.506 48.3 477.178C48.3 492.97 53.094 507.258 62.682 520.042L28.842 537.244C22.074 531.228 16.528 522.298 12.204 510.454C8.06798 498.798 5.99997 486.296 5.99997 472.948C5.99997 442.304 15.306 417.394 33.918 398.218C52.906 379.042 77.628 369.454 108.084 369.454C137.788 369.454 162.228 378.478 181.404 396.526C199.115 413.194 208.647 436.118 210 465.295V0ZM164.484 9.59521V68.8152H9.38397V113.935H164.484V173.155H206.784L206.784 9.59521H164.484ZM9.38397 160.719V206.121L50.838 222.477V300.591L9.38397 316.947V365.169L206.784 283.107V242.781L9.38397 160.719ZM148.974 261.675L93.138 283.671V239.397L148.974 261.675ZM164.484 545.781V605.001H9.38397V650.121H164.484V709.341H206.784V545.781H164.484ZM9.38397 785.371V740.251H206.784V785.371H9.38397ZM9.38397 1043.86V998.457L206.784 1080.52V1120.84L9.38397 1202.91V1154.68L50.838 1138.33V1060.21L9.38397 1043.86ZM93.138 1121.41L148.974 1099.41L93.138 1077.13V1121.41ZM9.38397 1228.18V1353.67H51.684V1273.3H206.784V1228.18H9.38397Z"></path></svg>
