<svg width="201" height="1776" viewBox="0 0 201 1776" xmlns="http://www.w3.org/2000/svg"><path fill-rule="evenodd" clip-rule="evenodd" fill="#0d0d0d" d="M201 0H0V1776H201V0ZM54.6478 85.969C62.4798 85.969 70.7568 76.802 79.4788 58.468C81.7928 53.128 83.9288 48.411 85.8868 44.317C88.0228 40.401 90.8708 35.951 94.4308 30.967C98.1688 26.161 101.996 22.156 105.912 18.952C109.828 15.926 114.723 13.256 120.597 10.942C126.471 8.806 132.79 7.827 139.554 8.005C154.506 8.005 167.233 13.523 177.735 24.559C188.237 35.595 193.488 50.191 193.488 68.347C193.488 92.199 186.635 110.533 172.929 123.349L140.889 100.387C145.695 95.225 148.988 90.686 150.768 86.77C152.548 83.032 153.438 78.137 153.438 72.085C153.438 66.211 152.192 61.583 149.7 58.201C147.208 54.997 143.826 53.395 139.554 53.395C134.748 53.395 130.476 55.264 126.738 59.002C123 62.918 119.885 67.724 117.393 73.42C115.079 79.294 112.142 85.613 108.582 92.377C105.022 99.141 101.195 105.371 97.1008 111.067C93.1848 116.941 87.5778 121.747 80.2798 125.485C73.1598 129.401 64.7938 131.359 55.1818 131.359C39.1618 131.359 25.9898 125.218 15.6658 112.936C5.3418 101.01 0.179779 85.791 0.179779 67.279C0.179779 53.751 2.93878 40.935 8.45679 28.831C13.9748 16.549 21.4508 8.272 30.8848 4L59.9878 28.297C53.7578 33.103 48.8628 39.155 45.3028 46.453C41.9208 53.751 40.2298 61.049 40.2298 68.347C40.2298 73.865 41.4758 78.137 43.9678 81.163C46.6378 84.367 50.1978 85.969 54.6478 85.969ZM150.234 200.683V144.613H190.284V299.473H150.234V243.403H3.38379V200.683H150.234ZM3.38379 368.789H68.7988V384.542L3.38379 429.932V481.69V481.73V524.677L42.6328 540.163V614.122L3.38379 629.608V675.265L190.284 597.568V559.387L3.41809 481.704L77.0758 427.262C87.3998 448.266 105.378 458.768 131.01 458.768C170.882 458.768 190.818 435.717 190.818 389.615C190.818 381.961 190.729 371.993 190.551 359.711C190.373 347.429 190.284 336.215 190.284 326.069H3.38379V368.789ZM150.501 385.076C150.679 386.5 150.768 387.301 150.768 387.479C150.768 404.745 144.004 413.378 130.476 413.378C116.058 413.378 108.849 403.677 108.849 384.275V368.789H150.234V378.401C150.412 381.427 150.501 383.652 150.501 385.076ZM82.6828 598.102L135.549 577.276L82.6828 556.183V598.102ZM150.234 663.49V719.56H3.38379V762.28H150.234V818.35H190.284V663.49H150.234ZM3.38379 958.421V844.946H190.284V955.751H150.234V887.666H117.393V947.741H77.3428V887.666H43.4338V958.421H3.38379ZM69.8668 1075.42V1115.2H49.5748C47.2608 1112.71 45.1248 1108.53 43.1668 1102.65C41.2088 1096.42 40.2298 1090.82 40.2298 1085.83C40.2298 1069.1 45.3028 1055.66 55.4488 1045.51C65.7728 1035.55 79.5678 1030.56 96.8338 1030.56C114.99 1030.56 128.963 1035.46 138.753 1045.25C148.543 1055.22 153.438 1068.48 153.438 1085.03C153.438 1092.33 152.103 1099.54 149.433 1106.66C146.763 1113.96 143.47 1119.47 139.554 1123.21L173.997 1141.1C186.991 1124.9 193.488 1104.52 193.488 1079.96C193.488 1051.48 184.232 1028.52 165.72 1011.07C147.386 993.806 124.424 985.173 96.8338 985.173C67.2858 985.173 43.7898 993.984 26.3458 1011.61C8.90179 1029.41 0.179779 1053.97 0.179779 1085.3C0.179779 1097.58 2.58279 1110.22 7.38879 1123.21C12.1948 1136.56 18.6028 1147.24 26.6128 1155.25H109.917V1075.42H69.8668ZM3.38379 1237.91V1195.18H190.284V1237.91H3.38379ZM21.8068 1434.24L53.8468 1417.96C44.7688 1405.85 40.2298 1392.32 40.2298 1377.37C40.2298 1360.64 45.4808 1347.02 55.9828 1336.52C66.8408 1326.02 80.4578 1320.77 96.8338 1320.77C114.812 1320.77 128.696 1325.66 138.486 1335.45C148.454 1345.42 153.438 1357.97 153.438 1373.1C153.438 1386.09 149.611 1398.82 141.957 1411.28L173.997 1430.24C179.871 1424.19 184.588 1416.09 188.148 1405.94C191.708 1395.8 193.488 1384.85 193.488 1373.1C193.488 1342.13 184.41 1318.1 166.254 1301.01C148.098 1283.92 124.958 1275.38 96.8338 1275.38C67.9978 1275.38 44.5908 1284.46 26.6128 1302.61C8.99078 1320.77 0.179779 1344.35 0.179779 1373.37C0.179779 1386.01 2.13782 1397.84 6.0538 1408.88C10.1478 1420.09 15.3988 1428.55 21.8068 1434.24ZM3.38379 1482.64V1439.66L190.284 1517.35V1555.53L3.38379 1633.23V1587.57L42.6328 1572.09V1498.13L3.38379 1482.64ZM82.6828 1556.07L135.549 1535.24L82.6828 1514.15V1556.07ZM3.38379 1657.16V1775.97H43.4338V1699.88H190.284V1657.16H3.38379Z"></path></svg>
