<svg width="193" height="1535" viewBox="0 0 193 1535" xmlns="http://www.w3.org/2000/svg"><path fill-rule="evenodd" clip-rule="evenodd" fill="#0d0d0d" d="M193 0H0V1535H193V298.793C191.303 323.788 182.595 344.462 166.875 360.817C149.253 379.507 125.846 388.852 96.6541 388.852C68.5301 388.852 45.3901 379.418 27.2341 360.55C9.07812 341.86 0.00012207 318.186 0.00012207 289.528C0.00012207 260.514 8.8111 236.662 26.4331 217.972C44.0551 199.46 67.4621 190.204 96.6541 190.204C124.244 190.204 147.206 199.371 165.54 217.705C182.102 234.267 191.255 255.174 193 280.427V0ZM3.2041 112.805V155.525H190.104V112.805H118.548V44.72H190.104V2H3.2041V44.72H78.4981V112.805H3.2041ZM56.3371 251.347C67.3731 240.845 80.8121 235.594 96.6541 235.594C113.386 235.594 127.003 240.667 137.505 250.813C148.007 260.959 153.258 273.864 153.258 289.528C153.258 304.658 148.007 317.474 137.505 327.976C127.181 338.3 113.564 343.462 96.6541 343.462C80.2781 343.462 66.6611 338.745 55.8031 329.311C45.3011 319.877 40.0501 306.616 40.0501 289.528C40.0501 274.398 45.4791 261.671 56.3371 251.347ZM3.2041 466.34V423.62H190.104V466.607L111.339 524.279L190.104 578.747V619.064H3.2041V576.344H122.286L49.3951 524.279V518.138L121.485 466.34H3.2041ZM3.2041 667.153V780.628H43.2541V709.873H77.1631V769.948H117.213V709.873H150.054V777.958H190.104V667.153H3.2041ZM3.2041 939.545V820.73H190.104V863.45H43.2541V939.545H3.2041ZM3.2041 942.195V985.182L42.4531 1000.67V1074.63L3.2041 1090.11V1135.77L190.104 1058.07V1019.89L3.2041 942.195ZM135.369 1037.78L82.5031 1058.61V1016.69L135.369 1037.78ZM3.2041 1322.57V1288.39L115.344 1199.75H3.2041V1159.7H190.104V1193.87L77.4301 1282.52H190.104V1322.57H3.2041ZM3.2041 1370.64V1375.17C3.2041 1386.03 3.11511 1395.73 2.93707 1404.28C2.75909 1412.82 2.6701 1420.56 2.6701 1427.51C2.6701 1461.68 11.6591 1488.03 29.6371 1506.54C47.7931 1525.23 70.6661 1534.57 98.2561 1534.57C125.134 1534.57 147.295 1525.85 164.739 1508.41C182.183 1490.96 190.905 1464.71 190.905 1429.64C190.905 1428.4 190.816 1426.53 190.638 1424.04C190.638 1421.54 190.549 1417.98 190.371 1413.36V1401.07C190.193 1391.28 190.104 1382.38 190.104 1374.37V1370.64H3.2041ZM150.054 1413.36C150.588 1416.92 150.855 1422.17 150.855 1429.11C150.855 1447.44 146.227 1462.04 136.971 1472.9C127.715 1483.75 114.81 1489.18 98.2561 1489.18C80.8121 1489.18 67.1951 1483.84 57.4051 1473.16C47.6151 1462.48 42.7201 1447.71 42.7201 1428.84C42.7201 1423.5 42.8981 1418.34 43.2541 1413.36H150.054Z"></path></svg>
