<svg width="194" height="870" viewBox="0 0 194 870" xmlns="http://www.w3.org/2000/svg"><path fill-rule="evenodd" clip-rule="evenodd" fill="#0d0d0d" d="M194 0H0V870H194V122.049C193.35 130.683 191.673 138.854 188.968 146.563C185.408 156.709 180.691 164.808 174.817 170.86L142.777 151.903C150.431 139.443 154.258 126.716 154.258 113.722C154.258 98.592 149.274 86.043 139.306 76.075C129.516 66.285 115.632 61.39 97.6541 61.39C81.2781 61.39 67.6611 66.641 56.8031 77.143C46.3011 87.645 41.0501 101.262 41.0501 117.994C41.0501 132.946 45.5891 146.474 54.6671 158.578L22.6271 174.865C16.2191 169.169 10.9681 160.714 6.87411 149.5C2.95811 138.464 1.00009 126.627 1.00009 113.989C1.00009 84.975 9.8111 61.39 27.4331 43.234C45.4111 25.078 68.8181 16 97.6541 16C125.778 16 148.918 24.544 167.074 41.632C183.299 56.9025 192.274 77.7167 194 104.075V0ZM191.104 303.49V349.681L80.2991 283.465H4.2041V240.745H80.2991L191.104 175.063V223.924L120.349 263.974L191.104 303.49ZM190.57 373.79H4.7381C3.6701 384.826 3.13611 402.715 3.13611 427.457C3.13611 448.639 8.03111 465.727 17.8211 478.721C27.7891 491.893 42.1181 498.479 60.8081 498.479C71.6661 498.479 80.7441 495.987 88.0421 491.003C95.3401 486.197 100.502 479.789 103.528 471.779H104.062C113.496 486.019 127.38 493.139 145.714 493.139C160.132 493.139 171.435 487.799 179.623 477.119C187.989 466.617 192.172 451.042 192.172 430.394C192.172 413.484 191.638 394.616 190.57 373.79ZM79.7651 416.51V433.064C79.7651 448.194 74.1581 455.759 62.9441 455.759C49.7721 455.759 43.1861 447.482 43.1861 430.928C43.1861 425.232 43.7201 420.426 44.7881 416.51H79.7651ZM151.054 416.51C151.766 422.206 152.122 426.656 152.122 429.86C152.122 435.734 150.609 440.629 147.583 444.545C144.557 448.461 140.463 450.419 135.301 450.419C123.197 450.419 117.145 443.833 117.145 430.661V416.51H151.054ZM4.2041 652.055V538.58H191.104V649.385H151.054V581.299H118.213V641.375H78.1631V581.299H44.2541V652.055H4.2041ZM4.2041 734.877H69.6191V750.63L4.2041 796.02V847.818L77.8961 793.35C88.2201 814.354 106.198 824.856 131.83 824.856C171.702 824.856 191.638 801.805 191.638 755.703C191.638 748.049 191.549 738.081 191.371 725.799C191.193 713.517 191.104 702.303 191.104 692.157H4.2041V734.877ZM151.321 751.164C151.499 752.588 151.588 753.389 151.588 753.567C151.588 770.833 144.824 779.466 131.296 779.466C116.878 779.466 109.669 769.765 109.669 750.363V734.877H151.054V744.489C151.232 747.515 151.321 749.74 151.321 751.164Z"></path></svg>
